# xmcd
#
# Track frame offsets:
#	150
#	16070
#	31225
#	55730
#	70707
#	85787
#	103765
#	120257
#	134357
#	151187
#	169137
#	182300
#	196015
#	212382
#	226150
#
# Disc length: 3202 seconds
#
# Revision: 1
# Processed by: cddbd v1.5.1PL2 Copyright (c) Steve Scherf et al.
# Submitted via: audiograbber 1.83.01
#
DISCID=a70c800f
DTITLE=Music Maestro Top Country Hits 90's Vol 36 - Mm6148
DYEAR=1900
DGENRE=Karaoke
TTITLE0=Vince Gill - High Lonesome Sound
TTITLE1=Alan Jackson - Home
TTITLE2=Wynonna Judd - Heaven Help My Heart
TTITLE3=Sky Kings - Picture Perfect
TTITLE4=Dwight Yoakum - Sorry You Asked
TTITLE5=Ricky Skaggs - Cat's In The Cradle
TTITLE6=Jo Dee Messina - Walk To The Light
TTITLE7=Clay Walker - Only On Days That End In Y
TTITLE8=Alan Jackson - I'll Try
TTITLE9=Chris Ledoux - Gravitational Pull
TTITLE10=Lorrie Morgan Jon Randall - By My Side
TTITLE11=John Michael Montgomery - It's What I Am
TTITLE12=Patty Loveless - Thousand Times A Day
TTITLE13=Daryle Singletary - Workin' It Out
TTITLE14=Rich McCready - Thinkin' Strait
EXTD=
EXTT0=
EXTT1=
EXTT2=
EXTT3=
EXTT4=
EXTT5=
EXTT6=
EXTT7=
EXTT8=
EXTT9=
EXTT10=
EXTT11=
EXTT12=
EXTT13=
EXTT14=
PLAYORDER=
